<svg width="476" height="459" viewBox="0 0 476 459" fill="none" xmlns="http://www.w3.org/2000/svg">
<path d="M128.094 17.1628C135.69 0.0293865 118.674 -1.52772 111.094 1.1628C106.926 4.92189 103.255 8.14659 94.5942 15.6628C86.4878 21.5289 82.2742 25.0753 75.0942 31.6628C63.1345 45.5575 59.6411 52.9882 58.5942 65.6628C57.5425 94.3233 57.7871 110.736 58.5942 140.163C59.1212 145.185 61.0369 147.83 68.0942 152.163C69.5807 152.598 70.5671 152.742 73.5942 152.163L74.5942 186.163C75.6933 197.7 77.6969 204.163 88.0942 215.663C99.4357 228.371 105.462 234.17 112.594 241.163C112.848 243.49 112.85 244.583 112.594 246.163C92.2881 245.718 81.424 246.416 62.5942 248.663C55.0095 250.725 50.7466 252.43 43.0942 257.663C25.9018 269.827 16.5835 277.448 0.594235 292.663C-0.199579 295.816 -0.196463 297.898 0.594235 302.163C2.16877 306.857 4.06841 308.579 9.09424 310.163C12.6194 311.413 14.4457 311.203 17.5942 310.163C33.37 296.845 41.9164 289.135 58.0942 277.163C62.697 275.152 72.8266 271.692 74.5942 271.663C76.8556 271.625 100.22 271.042 110.594 271.663C110.029 279.446 110.546 284.068 112.594 292.663C106.841 293.761 103.563 294.503 97.5942 296.163C91.264 297.861 87.506 299.251 80.5942 302.163C71.4356 306.26 66.4661 309.165 58.0942 316.163L56.9474 317.299C43.4326 330.692 35.5096 338.543 22.0942 354.663C21.1547 357.602 21.1472 359.351 22.0942 362.663C23.8428 367.49 26.1877 369.147 31.5942 371.163C35.0951 371.925 37.1765 371.573 41.0942 369.663C50.4157 358.618 71.1317 338.537 71.5942 338.163C73.2713 336.807 83.2925 327.035 89.5942 323.663C101.524 319.221 108.144 317.217 119.594 316.163C123.772 325.625 126.81 330.796 134.094 339.663C128.341 344.356 124.719 347.607 118.094 353.663C109.544 362.476 104.964 367.945 97.5942 379.663C93.331 387.633 91.6289 392.477 89.5942 401.663C88.9933 416.882 89.0602 426.079 89.5942 443.163C90.767 446.952 92.5504 448.471 97.5942 450.163C102.278 451.547 104.654 451.428 108.594 450.163C111.765 447.986 113.121 446.295 114.094 441.663L114.093 440.958C114.056 425.212 114.035 416.169 115.594 400.163C117.941 393.72 119.614 390.251 124.094 384.663C134.114 373.482 139.877 367.663 150.594 358.663C158.262 366.559 163.209 369.831 172.594 374.663C166.149 386.738 163.858 394.48 161.094 409.163C160.362 426.723 160.408 436.088 161.094 452.163C162.059 454.248 162.956 455.369 166.094 457.163C171.199 458.624 174.108 459.029 179.594 457.163C182.568 455.185 183.807 454.087 184.594 452.163C184.533 435.38 184.218 425.974 186.094 409.163C188.036 399.758 189.716 394.423 195.094 384.663C201.991 387.797 206.289 389.181 215.094 390.663C234.545 391.755 244.617 392.048 257.594 390.663C265.585 389.627 270.327 388.481 279.594 384.663C285.362 394.768 287.68 401.314 290.594 414.163L291.594 452.163C292.94 455.192 294.402 456.338 298.594 457.163C302.821 458.249 305.583 457.93 310.594 457.163C312.806 455.259 313.44 453.597 314.094 450.163C314.852 436.891 315.069 429.338 315.094 415.663C313.811 407.795 312.942 403.464 310.594 396.163C307.66 387.579 306.125 382.652 302.594 373.663C312.933 367.658 317.736 364.367 324.094 358.663L325.038 359.552C339.745 373.409 348.275 381.446 352.094 387.163C357.713 393.359 359.909 397.345 361.594 405.663C362.219 417.598 362.2 426.038 361.594 442.663C364.139 447.087 366.268 448.668 371.094 450.163C374.391 450.653 376.247 450.589 379.594 449.163C382.306 447.581 383.471 446.249 384.594 442.663C385.016 426.191 386.094 412.163 384.594 400.163C383.094 388.163 379.194 381.176 371.094 370.163L370.795 369.775C362.383 358.881 357.575 352.654 344.094 342.663C342.374 341.542 341.63 340.666 341.594 337.663C347.974 329.434 350.8 324.572 353.594 315.163C366.791 318.245 373.744 320.15 384.594 324.163C390.734 327.364 394.009 329.574 399.594 334.163C412.811 348.042 420.828 355.953 435.594 370.163C438.73 371.551 440.58 371.792 444.094 371.163C448.637 369.494 450.675 368.03 452.594 363.663C453.811 359.145 453.416 356.601 451.594 352.663C436.72 336.527 428.452 327.438 412.094 312.163C406.618 308.124 403.216 305.905 395.594 302.163C386.026 297.85 382.923 295.687 362.594 290.163C363.62 281.953 363.893 277.912 363.594 272.163C383.8 270.482 392.092 270.947 404.594 273.163C408.989 274.623 411.318 274.753 416.094 278.163C432.69 288.226 456.152 310.611 457.594 309.663C460.846 310.251 462.749 310.403 466.594 309.663C469.987 308.562 471.853 307.14 475.094 302.663C474.944 297.24 474.773 294.245 472.094 290.163L438.094 262.663C429.18 256.026 423.314 252.797 409.094 249.163C396.223 246.38 384.946 246.156 363.594 246.163C362.997 243.429 362.973 241.897 363.594 239.163C372.405 231.154 377.239 226.297 385.594 216.663C393.06 206.69 396.775 200.797 400.094 188.163C401.513 174.947 401.857 166.997 401.094 151.163H409.094C413.512 147.451 415.08 145.049 416.094 140.163C418.232 109.755 418.568 92.5283 416.094 61.1628C413.3 50.7359 410.952 45.244 404.094 36.6628C388.681 21.9184 380.034 13.656 361.594 1.16281C357.445 -0.239943 354.997 -0.528562 350.094 1.16281C347.657 3.3831 346.55 5.04616 345.594 9.66281C347.634 22.0794 349.686 28.2666 354.094 38.6628C356.334 52.9177 356.358 60.6491 355.094 74.1628C337.509 57.9504 328.791 48.3835 319.594 28.6628C316.767 27.6505 315.154 27.3551 312.094 28.6628C309.455 30.4564 308.537 31.9115 307.094 34.6628C303.171 54.1457 303.185 64.8386 305.594 83.6628C308.841 98.6698 324.269 115.046 363.594 151.163C367.021 154.027 369.042 155.553 376.594 155.163C377.799 166.767 377.388 173.083 375.594 184.163C367.763 200.165 362.159 207.538 349.094 216.663C335.553 205.661 324.912 200.364 291.094 195.163C290.799 189.53 290.753 186.438 291.094 181.163C297.43 180.167 300.368 179.355 302.594 176.663C302.93 171.648 302.827 168.866 300.094 164.163C299.843 153.182 298.976 147.561 289.094 143.663C282.644 141.168 278.492 141.146 270.094 143.663C265.08 146.698 263.122 148.938 261.594 154.163C261.077 158.97 261.096 161.825 261.594 167.163C259.374 167.82 258.666 168.635 258.094 170.663C257.405 172.995 257.57 174.308 259.094 176.663C261.361 176.999 262.687 176.945 265.094 176.663C267.338 178.513 268.361 179.653 269.094 182.163C269.447 187.24 269.41 190.086 269.094 195.163C246.219 192.079 232.406 191.96 206.594 193.663C205.786 188.607 205.703 185.673 206.594 180.163C211.142 179.736 213.263 179.017 216.094 176.663C217.101 172.777 217.967 170.701 214.094 165.163C213.782 151.74 211.127 147.073 202.094 143.663C195.719 141.822 192.026 141.619 185.094 143.663C177.756 149.102 175.016 153.407 174.594 165.163L173.094 167.163C171.819 169.528 171.857 171.999 172.094 176.663C172.893 178.217 175.396 178.971 182.594 180.163C183.284 184.604 183.423 188.263 183.594 195.163C159.02 195.337 146.158 200.44 124.594 217.163L100.594 189.663L98.5942 153.163C103.238 153.536 105.574 153.37 109.094 152.163C120.056 141.557 143.596 117.716 153.594 107.663C163.768 97.4329 168.928 87.1628 170.094 83.1628C170.892 82.9925 171.71 45.9249 167.594 34.6628C164.331 25.7326 157.594 26.8295 154.094 28.6628C150.894 31.0628 138.094 65.6628 119.094 74.6628C117.594 70.1628 118.397 39.0365 128.094 17.1628Z" fill="#FF0000"/>
<path d="M98.5943 153.163L100.594 189.663L124.594 217.163L112.594 241.163C112.848 243.49 112.85 244.583 112.594 246.163L110.594 271.663C100.22 271.042 76.8556 271.625 74.5943 271.663C72.8266 271.692 62.697 275.152 58.0942 277.163C41.9165 289.135 33.37 296.845 17.5942 310.163C14.4457 311.203 12.6194 311.413 9.09425 310.163C4.06843 308.579 2.16879 306.857 0.594254 302.163C-0.196444 297.898 -0.19956 295.816 0.594254 292.663C16.5836 277.448 25.9018 269.827 43.0942 257.663C50.7467 252.43 55.0096 250.725 62.5942 248.663C81.424 246.416 92.2881 245.718 112.594 246.163C112.85 244.583 112.848 243.49 112.594 241.163C105.462 234.17 99.4357 228.371 88.0943 215.663C77.6969 204.163 75.6933 197.7 74.5943 186.163L73.5943 152.163L98.5943 153.163Z" fill="#DF0000"/>
<path d="M375.594 184.163C367.763 200.165 362.159 207.538 349.094 216.663L363.594 239.163C372.405 231.154 377.239 226.297 385.594 216.663C393.06 206.69 396.775 200.797 400.094 188.163C401.513 174.947 401.857 166.997 401.094 151.163L376.594 155.163C377.799 166.767 377.388 173.083 375.594 184.163Z" fill="#DF0000"/>
<path d="M409.094 249.163C396.223 246.38 384.946 246.156 363.594 246.163V272.163C383.8 270.482 392.092 270.947 404.594 273.163C408.989 274.623 411.318 274.753 416.094 278.163C432.69 288.226 456.152 310.611 457.594 309.663C460.846 310.251 462.749 310.403 466.594 309.663C469.987 308.562 471.853 307.14 475.094 302.663C474.944 297.24 474.773 294.245 472.094 290.163L438.094 262.663C429.18 256.026 423.314 252.797 409.094 249.163Z" fill="#DF0000"/>
<path d="M395.594 302.163C386.026 297.85 382.923 295.687 362.594 290.163L353.594 315.163C366.791 318.245 373.744 320.15 384.594 324.163C390.734 327.364 394.009 329.574 399.594 334.163C412.811 348.042 420.828 355.953 435.594 370.163C438.73 371.551 440.58 371.792 444.094 371.163C448.637 369.494 450.675 368.03 452.594 363.663C453.811 359.145 453.416 356.601 451.594 352.663C436.72 336.527 428.452 327.438 412.094 312.163C406.618 308.124 403.216 305.905 395.594 302.163Z" fill="#DF0000"/>
<path d="M344.094 342.663C342.375 341.542 341.63 340.666 341.594 337.663L324.094 358.663L325.038 359.552C339.745 373.409 348.275 381.446 352.094 387.163C357.713 393.359 359.909 397.345 361.594 405.663C362.219 417.598 362.2 426.038 361.594 442.663C364.139 447.087 366.268 448.668 371.094 450.163C374.391 450.653 376.247 450.589 379.594 449.163C382.306 447.581 383.471 446.249 384.594 442.663C385.016 426.191 386.094 412.163 384.594 400.163C383.094 388.163 379.194 381.176 371.094 370.163L370.795 369.775C362.383 358.881 357.575 352.654 344.094 342.663Z" fill="#DF0000"/>
<path d="M310.594 396.163C307.66 387.579 306.125 382.652 302.594 373.663L279.594 384.663C285.362 394.768 287.68 401.313 290.594 414.163L291.594 452.163C292.94 455.192 294.402 456.338 298.594 457.163C302.821 458.249 305.583 457.93 310.594 457.163C312.806 455.259 313.44 453.597 314.094 450.163C314.852 436.891 315.069 429.338 315.094 415.663C313.811 407.795 312.942 403.464 310.594 396.163Z" fill="#DF0000"/>
<path d="M186.094 409.163C188.036 399.758 189.716 394.423 195.094 384.663L172.594 374.663C166.149 386.738 163.858 394.48 161.094 409.163C160.362 426.723 160.408 436.088 161.094 452.163C162.059 454.248 162.956 455.369 166.094 457.163C171.199 458.624 174.108 459.029 179.594 457.163C182.568 455.185 183.807 454.087 184.594 452.163C184.533 435.38 184.218 425.974 186.094 409.163Z" fill="#DF0000"/>
<path d="M124.094 384.663C134.114 373.482 139.877 367.663 150.594 358.663L134.094 339.663C128.341 344.356 124.719 347.607 118.094 353.663C109.544 362.476 104.964 367.945 97.5943 379.663C93.331 387.633 91.6289 392.477 89.5943 401.663C88.9934 416.882 89.0602 426.079 89.5943 443.163C90.767 446.952 92.5504 448.471 97.5943 450.163C102.278 451.546 104.654 451.428 108.594 450.163C111.765 447.986 113.121 446.295 114.094 441.663L114.093 440.958C114.056 425.212 114.035 416.169 115.594 400.163C117.941 393.72 119.614 390.251 124.094 384.663Z" fill="#DF0000"/>
<path d="M89.5943 323.663C101.524 319.221 108.144 317.217 119.594 316.163L112.594 292.663C106.841 293.761 103.563 294.503 97.5943 296.163C91.2641 297.861 87.506 299.251 80.5943 302.163C71.4356 306.26 66.4662 309.165 58.0942 316.163C43.8713 330.259 35.8847 338.092 22.0942 354.663C21.1548 357.601 21.1472 359.351 22.0942 362.663C23.8428 367.49 26.1877 369.147 31.5942 371.163C35.0951 371.925 37.1765 371.573 41.0942 369.663C50.4158 358.618 71.1317 338.537 71.5943 338.163C73.2713 336.807 83.2925 327.035 89.5943 323.663Z" fill="#DF0000"/>
<path d="M154.094 28.6628C150.894 31.0628 138.094 65.6628 119.094 74.6628L98.5943 153.163C103.238 153.536 105.574 153.37 109.094 152.163C120.056 141.557 143.596 117.716 153.594 107.663C163.768 97.4329 168.928 87.1628 170.094 83.1628C170.892 82.9926 171.71 45.925 167.594 34.6628C164.331 25.7326 157.594 26.8295 154.094 28.6628Z" fill="#DF0000"/>
<path d="M363.594 151.163C367.021 154.027 369.042 155.553 376.594 155.163L355.094 74.1628C337.509 57.9504 328.791 48.3836 319.594 28.6628C316.767 27.6505 315.154 27.3551 312.094 28.6628C309.455 30.4564 308.537 31.9115 307.094 34.6628C303.171 54.1458 303.185 64.8386 305.594 83.6628C308.841 98.6698 324.269 115.046 363.594 151.163Z" fill="#DF0000"/>
<path d="M184.5 143.879C177.162 149.318 174.922 153.744 174.5 165.5C189.759 167.191 198.889 167.242 214.5 165.379C214.188 151.956 211.533 146.91 202.5 143.5C196.125 141.659 191.431 141.835 184.5 143.879Z" fill="black"/>
<path d="M261.5 154C260.983 158.807 260.502 162.041 261 167.379C277.448 168.206 287.075 168.415 300 164.258C299.749 153.278 298.882 147.398 289 143.5C282.55 141.005 278.398 140.983 270 143.5C264.986 146.535 263.027 148.775 261.5 154Z" fill="black"/>
</svg>
