<svg width="297" height="297" viewBox="0 0 297 297" fill="none" xmlns="http://www.w3.org/2000/svg">
<g clip-path="url(#clip0_1001_5)">
<circle cx="148.5" cy="148.5" r="148.5" fill="white"/>
<path d="M283.5 183.5L276.5 198.5H228C234.683 190.93 237.07 186.352 238.5 177.5C241.813 158.623 242.22 143.41 223.5 111C214.785 123.575 215.742 134.173 216.5 152.5L216.212 152.162C202.961 136.622 195.444 127.806 210.5 105.5C193.633 107.194 184.595 114.239 169 134.5C166.91 119.839 166.082 111.456 173.945 100.965C174.939 99.639 176.225 98.5531 177.649 97.7064C191.135 89.6922 199.421 86.8565 214 89.4998C205.358 77.8917 198.304 72.8279 177 69.4998C197.666 57.3411 213.312 59.4186 225 83.4998C233.255 72.7161 238.838 67.6938 256.5 66.9998H261L269 78.9998H255.303C253.775 78.9998 252.25 79.2094 250.795 79.6735C242.885 82.1965 238.694 84.8474 233.5 91.4998L246 92.4998C257.939 97.7452 264.302 102.017 271.862 118.119C272.287 119.024 272.5 120.017 272.5 121.017V134.251C272.5 134.341 272.388 134.383 272.326 134.318C259.132 120.542 251.178 113.43 233.5 105.5C244.513 127.424 249.827 139.974 255.5 163.5L262 182L283.5 183.5Z" fill="#1E744A" stroke="#0C5632"/>
<path d="M189 157L14.5 154.5L13.5 148V141L14 134L15.536 127.225C49.7608 122.482 68.66 121.929 100.746 132.776C129.581 144.372 144.565 147.006 170 147.5C180.926 148.945 184.617 151.328 189 157Z" fill="#1E744A" stroke="#0C5632"/>
<path d="M282.943 159.483C283.46 175.515 280.441 191.478 274.064 206.447C267.686 221.415 258.077 235.09 245.795 246.675C233.513 258.26 218.802 267.524 202.52 273.93C186.237 280.336 168.706 283.754 150.947 283.987C133.187 284.22 115.554 281.263 99.072 275.287C82.5898 269.311 67.5877 260.437 54.9379 249.179C42.2881 237.921 32.243 224.504 25.3868 209.709C18.5305 194.915 14.9998 179.037 15 162.999L149 163L282.943 159.483Z" fill="#53B295"/>
<path d="M26.5 207.5H17L71.5 270.5L98.5 273C129.272 273.567 145.732 271.831 166.5 246.5L179 207.5C162.463 189.25 139.925 182.364 93.5 207.5C68.4571 220.443 53.8423 220.408 26.5 207.5Z" fill="#FDF8F4" stroke="#008D66"/>
<path d="M172.236 214.197C141.556 191.885 124.205 197.56 94.453 228.528C94.1576 228.835 93.8081 229.102 93.4316 229.302L78 237.5C81.4227 241.672 84.9991 242.479 94 241.5C97.3811 241.466 98.0274 242.195 97.5 244.5C90.5814 248.794 86.9 251.065 80.5 255C93.7685 262.571 100.593 259.379 112.5 250.5C129.359 254.962 141.581 253.947 165.502 246.023C167.855 245.243 170.394 246.736 170.589 249.208C171.351 258.918 168.443 263.704 162 270.5C157.628 274.905 156.329 277.764 156 283.5V287H170V281C177.138 275.403 180.727 271.534 186.5 263.5C194.443 250.155 197.558 242.728 182.299 233.991C181.325 233.433 180.926 232.172 181.61 231.281C182.646 229.934 183.971 228.904 186.5 227.5C197.75 223.105 206.855 222.745 209.369 210.704C210.062 207.384 209.146 203.762 206.567 201.561C204.341 199.662 201.77 198.796 197.5 198.5C187.778 197.745 182.76 201.896 175.169 213.661C174.535 214.644 173.182 214.885 172.236 214.197Z" fill="#1E744A"/>
<path d="M94.0925 228.181C94.3328 228.412 94.5732 228.643 94.8136 228.874C100.173 223.309 105.642 217.948 111.637 213.152C120.235 206.255 130.628 200.373 141.839 201.252C152.973 202.058 162.917 208.118 171.942 214.602C173.064 215.454 174.842 215.142 175.589 213.932C180.487 206.105 187.447 197.346 197.461 198.999C200.651 199.21 203.886 199.842 206.242 201.941C208.663 203.984 209.543 207.502 208.88 210.602C207.551 221.566 195.322 223.525 186.318 227.034L186.257 227.063C184.444 228.081 182.549 229.213 181.214 230.977C180.303 232.118 180.91 233.82 182.051 234.425C186.983 237.295 192.558 241.211 192.604 247.157C192.507 252.951 188.976 258.148 186.07 263.244L186.094 263.208C181.487 269.805 176.12 275.765 169.691 280.607L169.5 280.757V281C169.5 283 169.5 285 169.5 287L170 286.5C165.333 286.5 160.667 286.5 156 286.5L156.5 287C156.5 285.833 156.5 284.667 156.5 283.5L156.499 283.529C156.522 278.595 158.755 274.191 162.355 270.852L162.363 270.844C168.101 265.394 172.283 257.316 171.087 249.168C170.958 246.423 167.802 244.631 165.345 245.548C148.414 251.32 130.058 255.442 112.628 250.017L112.395 249.955L112.201 250.099C107.512 253.528 102.724 257.153 97.1111 258.388C91.4677 259.659 85.7371 257.425 80.7478 254.566L80.7619 255.426C86.4393 251.937 92.1022 248.44 97.7637 244.925L97.9409 244.815L97.9874 244.612C98.1106 244.028 98.2506 243.418 98.0966 242.69C97.9591 241.909 97.1506 241.371 96.5467 241.234C95.6566 240.997 94.8223 241 93.995 241L93.9459 241.003C89.7021 241.391 85.115 241.993 81.4716 239.931C80.2864 239.244 79.2786 238.272 78.3865 237.183L78.2346 237.942C83.3784 235.209 88.5223 232.476 93.6662 229.744C94.0947 229.515 94.4795 229.221 94.8136 228.874C94.5732 228.643 94.3328 228.412 94.0925 228.181C93.8317 228.452 93.526 228.685 93.197 228.86C88.0532 231.593 82.9093 234.326 77.7654 237.058L77.226 237.345L77.6135 237.817C78.5509 238.962 79.6475 240.029 80.9683 240.795C85.0927 243.084 89.7703 242.367 94.0541 241.997L94.005 242C94.7907 241.996 95.5985 242.012 96.2732 242.196C96.7613 242.337 97.0392 242.54 97.1235 242.92C97.2166 243.316 97.1319 243.865 97.0126 244.388L97.2363 244.075C91.5754 247.591 85.9153 251.085 80.2381 254.574L79.5193 255.016L80.2522 255.434C85.3084 258.332 91.3096 260.713 97.3168 259.366C103.258 258.046 108.083 254.338 112.799 250.901L112.372 250.983C129.995 256.482 148.733 252.281 165.659 246.497C167.591 245.783 170.004 247.182 170.09 249.247C171.205 257.234 167.344 264.662 161.637 270.156L161.645 270.148C157.992 273.471 155.475 278.461 155.501 283.471L155.5 283.5C155.5 284.667 155.5 285.833 155.5 287V287.5H156C160.667 287.5 165.333 287.5 170 287.5H170.5V287C170.5 285 170.5 283 170.5 281L170.309 281.393C176.776 276.53 182.297 270.403 186.906 263.792L186.93 263.756C189.831 258.62 193.462 253.469 193.604 247.14C193.496 240.501 187.514 236.47 182.548 233.557C181.83 233.169 181.521 232.167 182.006 231.586C183.194 230.01 184.953 228.939 186.743 227.937L186.682 227.966C195.378 224.556 208.444 222.397 209.859 210.806C210.582 207.408 209.642 203.514 206.891 201.18C204.311 198.881 200.771 198.212 197.535 198.001C187.064 196.247 179.571 205.608 174.749 213.39C174.309 214.115 173.206 214.312 172.53 213.793C163.443 207.273 153.391 201.097 141.906 200.254C130.319 199.351 119.677 205.42 111.014 212.37C104.961 217.213 99.4692 222.599 94.0925 228.181Z" fill="#0C5632"/>
<path d="M17 179H9L10 190.5H19.5C28.2059 195.913 34.9491 196.649 49.0194 194.483C51.0025 194.177 52.9418 193.612 54.8148 192.893C72.1767 186.224 82.9192 185.363 102 193C93.5959 184.597 85.3241 177.079 58.4864 180.25C57.1708 180.406 55.8617 180.706 54.5934 181.088C38.7057 185.878 30.137 185.555 17 179Z" fill="#FDF8F4" stroke="#008D66"/>
<path d="M297 148.5C297 230.514 230.514 297 148.5 297C66.4857 297 0 230.514 0 148.5C0 66.4857 66.4857 0 148.5 0C230.514 0 297 66.4857 297 148.5ZM14.4899 148.5C14.4899 222.512 74.4882 282.51 148.5 282.51C222.512 282.51 282.51 222.512 282.51 148.5C282.51 74.4882 222.512 14.4899 148.5 14.4899C74.4882 14.4899 14.4899 74.4882 14.4899 148.5Z" fill="white"/>
<path d="M296 148.5C296 229.962 229.962 296 148.5 296C67.038 296 1 229.962 1 148.5C1 67.038 67.038 1 148.5 1C229.962 1 296 67.038 296 148.5ZM15.3923 148.5C15.3923 222.014 74.9866 281.608 148.5 281.608C222.014 281.608 281.608 222.014 281.608 148.5C281.608 74.9866 222.014 15.3923 148.5 15.3923C74.9866 15.3923 15.3923 74.9866 15.3923 148.5Z" fill="#1E744A" stroke="#0C5632" stroke-width="2"/>
<path d="M13.5 128L18 127.5L17 154H12L13.5 128Z" fill="#1E744A"/>
<path d="M83.5 52.5L77 56.5L85 72L91.5 68L83.5 52.5Z" fill="#1E744A"/>
<path d="M117 65H109.5V46.5H118L117 65Z" fill="#1E744A"/>
<path d="M148 59L135 72L141 78L153 64L148 59Z" fill="#1E744A"/>
<path d="M54 78.5L50 85.5L68 93.5L72 86.5L54 78.5Z" fill="#1E744A"/>
<path d="M83.5 52.5L77 56.5L85 72L91.5 68L83.5 52.5Z" stroke="#0C5632"/>
<path d="M117 65H109.5V46.5H118L117 65Z" stroke="#0C5632"/>
<path d="M148 59L135 72L141 78L153 64L148 59Z" stroke="#0C5632"/>
<path d="M54 78.5L50 85.5L68 93.5L72 86.5L54 78.5Z" stroke="#0C5632"/>
<path d="M110 76.5C114.538 76.5 119.03 77.3043 123.22 78.8662C127.409 80.4281 131.213 82.7163 134.414 85.5977C137.616 88.479 140.152 91.8968 141.882 95.6543C143.611 99.4116 144.5 103.437 144.5 107.5V115H131.452V107.5C131.452 104.95 130.894 102.426 129.812 100.074C128.729 97.7225 127.144 95.5894 125.15 93.7949C123.156 92.0003 120.791 90.5791 118.192 89.6104C115.594 88.6416 112.81 88.1426 110 88.1426C107.19 88.1426 104.406 88.6416 101.808 89.6104C99.2089 90.5791 96.8436 92.0003 94.8496 93.7949C92.8558 95.5894 91.2709 97.7225 90.1885 100.074C89.1059 102.426 88.5479 104.95 88.5479 107.5V114H75.5V107.5C75.5 103.437 76.3889 99.4116 78.1182 95.6543C79.8475 91.8968 82.3844 88.479 85.5859 85.5977C88.7874 82.7163 92.5908 80.4281 96.7803 78.8662C100.97 77.3043 105.462 76.5 110 76.5Z" fill="#1E744A" stroke="#0C5632"/>
<path d="M200.16 205.379C200.492 205.158 200.988 205.13 201.584 205.388C202.175 205.645 202.799 206.163 203.29 206.9C203.78 207.636 204.017 208.412 204.026 209.056C204.035 209.706 203.817 210.152 203.486 210.373C203.155 210.594 202.659 210.623 202.062 210.364C201.471 210.107 200.846 209.589 200.356 208.853C199.866 208.117 199.629 207.341 199.62 206.696C199.611 206.046 199.829 205.6 200.16 205.379Z" fill="#FDF8F4" stroke="#0C5632"/>
<path d="M260 66.5L253.5 68L256 78.5H266.5L260 66.5Z" fill="#1E744A"/>
<path d="M168 283L156.5 285V283.5C156.551 282.362 156.625 281.834 157 281.5L169.5 280H170.5C168.904 281.338 168.638 281.919 168 283Z" fill="#1E744A"/>
</g>
<defs>
<clipPath id="clip0_1001_5">
<rect width="297" height="297" fill="white"/>
</clipPath>
</defs>
</svg>
